# xmcd
#
# Track frame offsets:
#	150
#	17911
#	27731
#	42551
#	59812
#	74569
#	85337
#	103623
#	107906
#	122407
#	128998
#	142697
#	160358
#	164961
#	178960
#	191417
#	209191
#
# Disc length: 2982 seconds
#
# Revision: 2
# Processed by: cddbd v1.5.2PL0 Copyright (c) Steve Scherf et al.
# Submitted via: audiograbber 1.83.01
#
DISCID=120ba411
DTITLE=Various Artist - Promo Only Country Radio 2005 - 07
DYEAR=2005
DGENRE=Country
TTITLE0=Tim McGraw - Do You Want Fries With That
TTITLE1=Faith Hill - Mississippi Girl
TTITLE2=Brooks and Dunn - Play Something Country
TTITLE3=Jo Dee Messina - Delicious Surprise (I Believe It)
TTITLE4=Lonestar - You're Like Comin' Home
TTITLE5=Clint Black - Rainbow In The Rain
TTITLE6=Gary Allan - Best I Ever Had
TTITLE7=Andy Griggs - This I Gotta See
TTITLE8=Tracy Lawrence - Used To The Pain
TTITLE9=Phil Vassar - Good Ole Days
TTITLE10=Erika Joe - I Break Things
TTITLE11=Kerry Harvick - That's What Your Love Does
TTITLE12=Sawyer Brown - They Don't Understand
TTITLE13=Shelly Fairchield - Kiss Me
TTITLE14=Matt Jenkins - King Of The Castle
TTITLE15=Lila McCann - I Can Do This
TTITLE16=Dwight Yoakam - Intentional Heartache
EXTD=
EXTT0=
EXTT1=
EXTT2=
EXTT3=
EXTT4=
EXTT5=
EXTT6=
EXTT7=
EXTT8=
EXTT9=
EXTT10=
EXTT11=
EXTT12=
EXTT13=
EXTT14=
EXTT15=
EXTT16=
PLAYORDER=
